<svg width="108" height="108" viewBox="0 0 108 108" fill="none" xmlns="http://www.w3.org/2000/svg">
<path fill-rule="evenodd" clip-rule="evenodd" d="M33.4809 76.9213C36.7174 76.9213 39.9539 76.9572 43.1903 76.8974C44.1733 76.8854 44.8685 77.2086 45.5278 77.9149C47.8173 80.4289 50.1907 82.883 52.6121 85.2892C53.5591 86.2349 54.3023 86.2349 55.2373 85.3012C57.6466 82.859 60.068 80.4169 62.4534 77.9508C63.1487 77.2445 63.9038 76.8854 64.9227 76.8974C68.2431 76.9452 71.5755 76.9213 74.8959 76.9213C76.5501 76.9213 77.0536 76.4185 77.0536 74.7904C77.0536 71.211 77.0655 67.6316 77.0536 64.0522C77.0536 63.5973 77.1375 63.2142 77.4611 62.867C79.7986 60.377 82.1001 57.8631 84.4375 55.385C85.828 53.9006 85.876 53.302 84.4495 51.8415C82.3278 49.6388 80.1941 47.4361 78.0245 45.2813C77.3293 44.5869 77.0176 43.8806 77.0296 42.8751C77.0895 39.4632 77.0536 36.0634 77.0416 32.6516C77.0416 31.3826 76.4902 30.832 75.2196 30.7721C74.9798 30.7601 74.7401 30.7721 74.5003 30.7721C71.0241 30.7721 67.5479 30.7721 64.0717 30.7841C63.5922 30.7841 63.1966 30.6763 62.849 30.3052C60.4036 27.7554 57.9343 25.2175 55.489 22.6676C54.3382 21.4704 53.5711 21.4345 52.4083 22.6197C49.951 25.1097 47.5057 27.5997 45.0723 30.1257C44.5808 30.6285 44.0414 30.8799 43.3462 30.8799C39.858 30.8439 36.3578 30.832 32.8576 30.7841C31.4311 30.7601 30.8198 31.3108 30.8198 32.7354C30.8078 36.231 30.7958 39.7266 30.8318 43.2222C30.8438 44.0961 30.5441 44.7426 29.9447 45.3531C27.6672 47.6396 25.4137 49.962 23.1601 52.2845C22.309 53.1703 22.2851 53.8287 23.0642 54.6667C25.4856 57.2765 27.907 59.8862 30.3523 62.472C30.7119 62.8551 30.8558 63.2382 30.8558 63.7529C30.8318 67.3084 30.9037 70.8638 30.8198 74.4313C30.7718 76.5741 31.3232 77.0051 33.4809 76.9213ZM62.7771 75.9397C61.902 76.3227 61.2427 76.9213 60.5954 77.5438C58.7375 79.3395 56.8915 81.1472 55.0455 82.9548C54.8776 83.1104 54.6859 83.2661 54.5061 83.4217C54.0266 83.8527 53.619 83.697 53.2115 83.29C51.2096 81.3267 49.1958 79.3754 47.206 77.4121C46.5347 76.7417 45.8035 76.1791 44.9165 75.8199C44.6168 75.7002 44.3651 75.5326 44.3651 75.1735C44.389 73.2102 44.1733 71.223 44.5928 69.2717C44.8965 67.867 45.4879 66.5981 46.3669 65.4648C46.7984 64.8902 46.9183 64.9022 47.3738 65.4768C48.7523 67.1647 49.3636 69.1041 49.3397 71.2709C49.3277 73.3658 49.3397 75.4728 49.3517 77.5797C49.3517 77.8191 49.2797 78.0945 49.4955 78.3339C49.7952 78.1304 49.6993 77.8431 49.6993 77.6156C49.7113 74.97 49.7352 72.3124 49.6993 69.6667C49.6753 67.2006 50.5983 65.2972 52.732 63.9923C53.0317 63.8247 53.2834 63.5853 53.5471 63.3579C53.667 63.2382 53.8108 63.0945 53.7509 62.903C53.679 62.7114 53.4872 62.6994 53.3074 62.6875C53.0916 62.6755 52.8758 62.6755 52.6601 62.6755C48.4406 62.6755 44.2252 62.6715 40.0138 62.6635C39.9299 62.6635 39.834 62.6635 39.7501 62.6516C39.4384 62.5797 38.911 62.7952 38.911 62.3044C38.911 61.8016 39.4384 61.8255 39.834 61.8255C49.1998 61.8255 58.5656 61.8255 67.9315 61.8255C68.0993 61.8255 68.2791 61.8375 68.4469 61.8734C68.6747 61.9213 68.8305 62.0889 68.8185 62.3403C68.7945 62.5917 68.5908 62.6396 68.387 62.6516C68.1472 62.6635 67.9075 62.6635 67.6678 62.6635C63.5682 62.6755 59.4567 62.6755 55.3571 62.6755C55.0575 62.6755 54.7458 62.6156 54.4461 62.8072C54.542 63.3459 54.9376 63.6212 55.3092 63.8966C56.4959 64.8184 57.4908 65.8838 57.9703 67.3563C58.222 68.1224 58.3419 68.9006 58.3419 69.7146C58.3299 72.3243 58.3419 74.9221 58.3419 77.5318C58.3419 77.7832 58.27 78.0466 58.4737 78.3219C58.7015 78.0107 58.6655 77.6875 58.6655 77.3762C58.6775 75.1615 58.7135 72.9468 58.6775 70.7322C58.6416 68.3738 59.7324 66.5901 61.3506 65.0219C61.7102 64.6867 61.926 64.9261 62.1657 65.1775C63.4004 66.5542 64.0597 68.1703 64.1076 70.0259C64.1436 71.3068 64.1556 72.5877 64.1795 73.8686C64.1915 74.1799 64.1436 74.5031 64.3354 74.8383C64.647 74.5869 64.5392 74.2876 64.5392 74.0362C64.5392 72.2166 64.4792 70.385 64.9467 68.6013C65.3782 66.9732 66.2173 65.5726 67.3561 64.3395C67.7037 63.9684 67.9315 64.0642 68.1712 64.4233C68.5907 65.0578 68.8784 65.7162 68.8665 66.4943C68.8665 68.9844 68.8784 71.4863 68.8665 73.9764C68.8665 74.8742 68.7706 74.982 67.8715 75.0418C66.1574 75.1615 64.4433 75.2693 62.7771 75.9397ZM55.0215 68.733C54.8297 68.4696 54.6379 68.2062 54.4341 67.9429C54.2064 67.6436 53.9547 67.6077 53.6909 67.9309C52.9358 68.8886 52.3724 69.9301 52.3604 71.1751C52.3484 73.7489 52.3724 76.3347 52.3484 78.9085C52.3484 79.4592 52.6241 79.7106 53.1156 79.7585C53.7868 79.8303 54.4581 79.8303 55.1294 79.7585C55.7287 79.6867 55.9685 79.3993 55.9565 78.7649C55.9245 76.4265 55.9205 74.0881 55.9445 71.7497C55.9685 70.6603 55.6328 69.7146 55.0215 68.733ZM68.2791 69.1639C68.387 68.3738 68.1592 67.6675 67.8116 66.9732C67.6078 66.5542 67.3321 66.5542 67.1283 66.9852C66.8047 67.6555 66.6489 68.3738 66.6848 69.128C66.7448 70.6843 66.8407 72.2286 66.9246 73.7848C66.9485 74.1559 66.8526 74.6587 67.452 74.6228C67.9914 74.5989 67.9435 74.1559 67.9315 73.7968C67.8955 72.2764 68.1113 70.78 68.2791 69.1639ZM70.8563 74.6707C69.9333 74.6587 69.9093 74.6348 69.9093 73.7968C69.8973 70.0857 69.8973 66.3746 69.8973 62.6635C69.8973 61.239 69.4059 60.7002 67.9914 60.5446C67.5599 60.4967 67.1283 60.4608 66.6968 60.4608C66.0975 60.4728 65.8337 60.2214 65.8457 59.5989C65.8697 58.2701 65.606 56.9772 65.2224 55.7082C64.6231 53.6971 63.3045 52.2366 61.6743 51.0035C60.4995 50.1057 59.3248 49.2198 58.1141 48.3699C56.424 47.1727 54.9855 45.7601 53.9427 43.9525C53.8827 43.8447 53.8348 43.713 53.5711 43.6532C53.5591 43.6771 53.5231 43.7609 53.4872 43.8328C52.4563 45.8798 50.7901 47.3044 48.9441 48.5853C47.9012 49.3156 46.8584 50.0698 45.8395 50.8479C43.7058 52.464 42.555 54.6548 42.1715 57.2884C42.0636 58.0426 42.0756 58.7968 42.0276 59.563C41.9677 60.389 41.8478 60.5087 40.9967 60.5566C40.3734 60.5925 39.7381 60.5207 39.1148 60.6883C38.2038 60.9397 37.7602 61.4544 37.7602 62.4121C37.7483 66.1232 37.7483 69.8343 37.7483 73.5454C37.7363 74.6707 37.7363 74.6707 36.6215 74.6707C35.7105 74.6707 34.7995 74.6707 33.8885 74.6707C33.0733 74.6707 33.0014 74.5989 33.0014 73.7729C32.9894 71.9413 32.9894 70.1216 32.9894 68.302C32.9894 66.5662 32.9774 64.8303 33.0014 63.0945C33.0014 62.484 32.8216 61.9931 32.4021 61.5622C30.1605 59.1919 27.9189 56.8335 25.6894 54.4513C24.9102 53.6252 24.9222 53.6133 25.7253 52.7753C27.847 50.5367 29.9687 48.31 32.1144 46.0833C32.6898 45.4848 32.9655 44.8144 32.9655 43.9764C32.9535 40.7322 32.9774 37.476 32.9774 34.2198C32.9774 33.1664 33.0733 33.0706 34.1402 33.0706C37.5085 33.0586 40.8769 33.0467 44.2452 33.0706C44.9404 33.0826 45.4319 32.8551 45.9114 32.3643C48.3088 29.8503 50.7421 27.3723 53.1515 24.8703C53.7749 24.2238 53.8947 24.2598 54.542 24.9301C57.0233 27.492 59.5166 30.0299 62.0099 32.5798C62.3815 32.9629 62.849 33.0706 63.3644 33.0706C66.7807 33.0586 70.197 33.0706 73.6013 33.0706C74.6921 33.0706 74.7521 33.1424 74.7521 34.2198C74.764 37.4042 74.788 40.6005 74.764 43.7849C74.7521 44.7545 75.1236 45.4848 75.7709 46.1552C78.0605 48.4896 80.314 50.8359 82.5915 53.1584C83.0111 53.5893 82.9631 53.9125 82.5676 54.3196C80.1941 56.7976 77.8447 59.2996 75.4593 61.7657C74.9438 62.2924 74.7401 62.8551 74.7401 63.5614C74.7521 66.9014 74.7401 70.2533 74.7401 73.5933C74.7401 74.6707 74.7281 74.6707 73.6612 74.6707C72.7382 74.6707 71.8272 74.6707 70.8563 74.6707ZM52.5042 32.9389C53.1635 32.1129 54.0985 31.7178 55.0694 31.3707C54.4821 30.5686 51.8689 31.0594 50.6343 32.0171C48.5365 33.6572 47.6375 36.4585 48.7883 39.0083C49.915 41.4984 52.6001 42.7793 55.4051 42.1448C57.0833 41.7617 59.0611 40.0977 59.0491 38.9724C57.9823 39.7625 56.8435 40.1576 55.5609 40.002C54.2543 39.8583 53.1395 39.3076 52.3484 38.2302C51.1137 36.5423 51.1497 34.6987 52.5042 32.9389ZM55.453 33.334C55.3691 33.2502 55.2612 33.2262 55.1653 33.2621C55.0694 33.298 54.9975 33.3818 54.9975 33.5016L54.9016 34.8184L53.8348 35.417C53.7509 35.4648 53.7029 35.5726 53.7029 35.6803C53.7149 35.7881 53.7748 35.8958 53.8707 35.9437L55.0215 36.5303L55.2852 37.8591C55.3092 37.9668 55.3811 38.0626 55.477 38.0985C55.5849 38.1225 55.6928 38.0985 55.7527 38.0147L56.5558 37.057L57.7785 37.2845C57.8864 37.2964 57.9823 37.2486 58.0422 37.1648C58.0902 37.069 58.0902 36.9493 58.0422 36.8535L57.3829 35.6684L57.8864 34.4832C57.9223 34.3874 57.9104 34.2677 57.8384 34.1719C57.7785 34.0881 57.6706 34.0403 57.5747 34.0642L56.376 34.2917L55.453 33.334ZM52.8998 49.4114C53.1395 48.6093 53.3553 47.8671 53.5831 47.1248C53.631 46.9333 53.667 46.7059 53.9067 46.6939C54.1225 46.6699 54.1824 46.8735 54.2663 47.0171C55.3451 49.2198 56.4719 51.3866 57.5028 53.6133C58.3778 55.5287 58.4618 57.5997 58.3299 59.6707C58.2939 60.2334 58.0302 60.5446 57.4309 60.5446C55.6328 60.5446 53.8228 60.5686 52.0248 60.5686C51.2696 60.5566 51.1018 60.3531 50.9939 59.6109C50.6343 57.1089 50.9459 54.6907 51.8809 52.3443C52.2525 51.3986 52.5522 50.4289 52.8998 49.4114ZM43.5859 69.1879C43.8736 71.0554 43.7178 72.875 43.7417 74.6946C43.7537 75.389 43.6099 75.4967 42.9266 75.4129C41.8358 75.2812 40.733 75.1376 39.6302 75.0298C38.9949 74.97 38.7432 74.6827 38.7432 74.0243C38.7791 71.5103 38.7911 68.9963 38.7432 66.4943C38.7192 65.5007 39.3066 64.8902 39.87 64.2437C40.1097 63.9564 40.3734 64.1121 40.6012 64.3156C42.0396 65.6444 43.2503 67.1168 43.5859 69.1879ZM40.9128 67.2126C40.6371 66.7697 40.3734 66.8654 40.1337 67.2485C39.834 67.7393 39.6542 68.2661 39.7021 68.8527C39.822 70.6244 39.9659 72.3962 40.0977 74.1559C40.1217 74.5869 40.3614 74.7066 40.745 74.7066C41.1646 74.7186 41.3204 74.5151 41.3444 74.12C41.4043 73.2461 41.5361 72.3842 41.5601 71.5223C41.6081 70.0857 41.8238 68.6013 40.9128 67.2126ZM51.6651 48.9564C52.0367 48.4537 52.3844 47.9868 52.744 47.5199C52.7799 47.484 52.8638 47.496 52.9238 47.484C53.1395 47.7593 52.9478 47.9868 52.8519 48.2142C52.3963 49.4114 51.761 50.5247 51.1976 51.6739C49.963 54.1879 49.6034 56.8216 49.987 59.5869C50.0948 60.401 49.975 60.5566 49.1599 60.5686C48.4167 60.5686 47.6775 60.5646 46.9423 60.5566C46.2111 60.5326 46.0432 60.377 46.0552 59.6587C46.1152 57.3363 46.8224 55.2294 48.2608 53.3858C49.3876 51.9253 50.5144 50.4529 51.6651 48.9564ZM47.5176 53.1464C45.9833 55.0857 45.2521 57.2765 45.2042 59.6947C45.1922 60.3291 44.9045 60.5446 44.3411 60.5566C44.1493 60.5566 43.9455 60.5446 43.7537 60.5566C43.1784 60.5925 42.9506 60.3172 42.9146 59.7425C42.7468 56.1512 44.0174 53.2541 47.0022 51.1592C48.5845 50.0578 50.1907 48.9804 51.6532 47.6995C51.7251 47.6276 51.833 47.6157 52.0008 47.6396C50.6343 49.555 48.9201 51.1951 47.5176 53.1464ZM57.347 49.6747C58.9892 51.5542 60.4876 53.4936 61.5904 55.7082C62.1897 56.9054 62.4894 58.1863 62.5733 59.5271C62.6092 60.0777 62.3935 60.3651 61.8661 60.389C61.1948 60.4249 60.5235 60.4369 59.8522 60.4249C59.4087 60.4129 59.2649 60.1615 59.3128 59.7306C59.4447 58.2701 59.4447 56.8335 59.145 55.397C58.7135 53.326 57.7425 51.5303 56.5438 49.8304C56.0404 49.124 55.5249 48.4297 55.0335 47.7114C54.9256 47.5558 54.6859 47.4241 54.8537 47.065C55.7647 47.8671 56.4839 48.8128 57.347 49.6747ZM62.5014 52.9908C64.3234 54.8583 65.0066 57.0969 64.9707 59.6109C64.9707 60.0777 64.8149 60.3411 64.2874 60.3291C63.796 60.3291 63.5083 60.1735 63.5083 59.6228C63.4603 56.642 62.2856 54.128 60.3557 51.9014C60.1279 51.638 59.8283 51.4106 59.7204 50.8719C60.8232 51.4704 61.6623 52.1887 62.5014 52.9908Z" fill="#2E7D5B"/>
</svg>
